<svg xmlns="http://www.w3.org/2000/svg" viewBox="0 0 1080 2112" width="1080" height="2112" font-family="'Atkinson Hyperlegible', Inter, Arial, sans-serif" role="img" aria-labelledby="t d" lang="es">
<title id="t">Antes de publicar: diez recomendaciones</title>
<desc id="d">Infografía con las diez recomendaciones para publicar de forma responsable materiales educativos creados con vibe coding, agrupadas en cuatro fases: proteger al alumnado, construir el material, documentar el trabajo y compartir el material.</desc>
<rect width="1080" height="2112" fill="#fbfbf8"/>
<rect x="0" y="0" width="1080" height="330" fill="#17453b"/>
<text x="70" y="125" font-size="68" font-weight="700" fill="#ffffff">Antes de publicar:</text>
<text x="70" y="205" font-size="68" font-weight="700" fill="#ffffff">diez recomendaciones</text>
<text x="70" y="272" font-size="34" font-weight="400" fill="#bcd2c9">Vibe coding responsable · Materiales educativos</text>
<text x="72" y="392" font-size="24" font-weight="700" letter-spacing="2.5" fill="#0f766e">PROTEGER AL ALUMNADO</text>
<line x1="440" y1="384" x2="1010" y2="384" stroke="#dde3df" stroke-width="2"/>
<rect x="70" y="418" width="940" height="112" rx="20" fill="#ffffff" stroke="#dde3df" stroke-width="2"/>
<text x="128" y="494" font-size="58" font-weight="700" fill="#0f766e" text-anchor="middle">1</text>
<rect x="186" y="434" width="80" height="80" rx="18" fill="#0f766e"/>
<g transform="translate(198 446) scale(2.3333)" fill="none" stroke="#ffffff" stroke-width="2" stroke-linecap="round" stroke-linejoin="round"><path d="M4 19.5v-15A2.5 2.5 0 0 1 6.5 2H19a1 1 0 0 1 1 1v18a1 1 0 0 1-1 1H6.5a1 1 0 0 1 0-5H20" />
  <path d="m9 9.5 2 2 4-4" /></g>
<text x="296" y="486" font-size="33" font-weight="400" fill="#16232b">Revisar el contenido sin delegarlo en la IA</text>
<rect x="70" y="546" width="940" height="112" rx="20" fill="#ffffff" stroke="#dde3df" stroke-width="2"/>
<text x="128" y="622" font-size="58" font-weight="700" fill="#0f766e" text-anchor="middle">2</text>
<rect x="186" y="562" width="80" height="80" rx="18" fill="#0f766e"/>
<g transform="translate(198 574) scale(2.3333)" fill="none" stroke="#ffffff" stroke-width="2" stroke-linecap="round" stroke-linejoin="round"><path d="M20 13c0 5-3.5 7.5-7.66 8.95a1 1 0 0 1-.67-.01C7.5 20.5 4 18 4 13V6a1 1 0 0 1 1-1c2 0 4.5-1.2 6.24-2.72a1.17 1.17 0 0 1 1.52 0C14.51 3.81 17 5 19 5a1 1 0 0 1 1 1z" />
  <path d="m9 12 2 2 4-4" /></g>
<text x="296" y="594" font-size="33" font-weight="400" fill="#16232b">No enviar datos personales</text>
<text x="296" y="636" font-size="33" font-weight="400" fill="#16232b">a servicios ajenos al centro</text>
<text x="72" y="716" font-size="24" font-weight="700" letter-spacing="2.5" fill="#0f766e">CONSTRUIR EL MATERIAL</text>
<line x1="457" y1="708" x2="1010" y2="708" stroke="#dde3df" stroke-width="2"/>
<rect x="70" y="742" width="940" height="112" rx="20" fill="#ffffff" stroke="#dde3df" stroke-width="2"/>
<text x="128" y="818" font-size="58" font-weight="700" fill="#0f766e" text-anchor="middle">3</text>
<rect x="186" y="758" width="80" height="80" rx="18" fill="#0f766e"/>
<g transform="translate(198 770) scale(2.3333)" fill="none" stroke="#ffffff" stroke-width="2" stroke-linecap="round" stroke-linejoin="round"><path d="M16 10a2 2 0 0 1-2 2H6.828a2 2 0 0 0-1.414.586l-2.202 2.202A.71.71 0 0 1 2 14.286V4a2 2 0 0 1 2-2h10a2 2 0 0 1 2 2z" />
  <path d="M20 9a2 2 0 0 1 2 2v10.286a.71.71 0 0 1-1.212.502l-2.202-2.202A2 2 0 0 0 17.172 19H10a2 2 0 0 1-2-2v-1" /></g>
<text x="296" y="810" font-size="33" font-weight="400" fill="#16232b">Entender qué hace el material</text>
<rect x="70" y="870" width="940" height="112" rx="20" fill="#ffffff" stroke="#dde3df" stroke-width="2"/>
<text x="128" y="946" font-size="58" font-weight="700" fill="#0f766e" text-anchor="middle">4</text>
<rect x="186" y="886" width="80" height="80" rx="18" fill="#0f766e"/>
<g transform="translate(198 898) scale(2.3333)" fill="none" stroke="#ffffff" stroke-width="2" stroke-linecap="round" stroke-linejoin="round"><path d="m19 5 3-3" />
  <path d="m2 22 3-3" />
  <path d="M6.3 20.3a2.4 2.4 0 0 0 3.4 0L12 18l-6-6-2.3 2.3a2.4 2.4 0 0 0 0 3.4Z" />
  <path d="M7.5 13.5 10 11" />
  <path d="M10.5 16.5 13 14" />
  <path d="m12 6 6 6 2.3-2.3a2.4 2.4 0 0 0 0-3.4l-2.6-2.6a2.4 2.4 0 0 0-3.4 0Z" /></g>
<text x="296" y="918" font-size="33" font-weight="400" fill="#16232b">No depender de servicios</text>
<text x="296" y="960" font-size="33" font-weight="400" fill="#16232b">que pueden desaparecer</text>
<rect x="70" y="998" width="940" height="112" rx="20" fill="#ffffff" stroke="#dde3df" stroke-width="2"/>
<text x="128" y="1074" font-size="58" font-weight="700" fill="#0f766e" text-anchor="middle">5</text>
<rect x="186" y="1014" width="80" height="80" rx="18" fill="#0f766e"/>
<g transform="translate(198 1026) scale(2.3333)" fill="none" stroke="#ffffff" stroke-width="2" stroke-linecap="round" stroke-linejoin="round"><circle cx="16" cy="4" r="1" />
  <path d="m18 19 1-7-6 1" />
  <path d="m5 8 3-3 5.5 3-2.36 3.5" />
  <path d="M4.24 14.5a5 5 0 0 0 6.88 6" />
  <path d="M13.76 17.5a5 5 0 0 0-6.88-6" /></g>
<text x="296" y="1066" font-size="33" font-weight="400" fill="#16232b">Hacerlo accesible a cualquier persona</text>
<text x="72" y="1168" font-size="24" font-weight="700" letter-spacing="2.5" fill="#0f766e">DOCUMENTAR EL TRABAJO</text>
<line x1="457" y1="1160" x2="1010" y2="1160" stroke="#dde3df" stroke-width="2"/>
<rect x="70" y="1194" width="940" height="112" rx="20" fill="#ffffff" stroke="#dde3df" stroke-width="2"/>
<text x="128" y="1270" font-size="58" font-weight="700" fill="#0f766e" text-anchor="middle">6</text>
<rect x="186" y="1210" width="80" height="80" rx="18" fill="#0f766e"/>
<g transform="translate(198 1222) scale(2.3333)" fill="none" stroke="#ffffff" stroke-width="2" stroke-linecap="round" stroke-linejoin="round"><path d="M16 3a2 2 0 0 0-2 2v6a2 2 0 0 0 2 2 1 1 0 0 1 1 1v1a2 2 0 0 1-2 2 1 1 0 0 0-1 1v2a1 1 0 0 0 1 1 6 6 0 0 0 6-6V5a2 2 0 0 0-2-2z" />
  <path d="M5 3a2 2 0 0 0-2 2v6a2 2 0 0 0 2 2 1 1 0 0 1 1 1v1a2 2 0 0 1-2 2 1 1 0 0 0-1 1v2a1 1 0 0 0 1 1 6 6 0 0 0 6-6V5a2 2 0 0 0-2-2z" /></g>
<text x="296" y="1242" font-size="33" font-weight="400" fill="#16232b">Citar la autoría de lo que se toma</text>
<text x="296" y="1284" font-size="33" font-weight="400" fill="#16232b">de otras personas</text>
<rect x="70" y="1322" width="940" height="112" rx="20" fill="#ffffff" stroke="#dde3df" stroke-width="2"/>
<text x="128" y="1398" font-size="58" font-weight="700" fill="#0f766e" text-anchor="middle">7</text>
<rect x="186" y="1338" width="80" height="80" rx="18" fill="#0f766e"/>
<g transform="translate(198 1350) scale(2.3333)" fill="none" stroke="#ffffff" stroke-width="2" stroke-linecap="round" stroke-linejoin="round"><path d="M13.4 2H6a2 2 0 0 0-2 2v16a2 2 0 0 0 2 2h12a2 2 0 0 0 2-2v-7.4" />
  <path d="M2 6h4" />
  <path d="M2 10h4" />
  <path d="M2 14h4" />
  <path d="M2 18h4" />
  <path d="M21.378 5.626a1 1 0 1 0-3.004-3.004l-5.01 5.012a2 2 0 0 0-.506.854l-.837 2.87a.5.5 0 0 0 .62.62l2.87-.837a2 2 0 0 0 .854-.506z" /></g>
<text x="296" y="1390" font-size="33" font-weight="400" fill="#16232b">Guardar el rastro de cómo se hizo</text>
<rect x="70" y="1450" width="940" height="112" rx="20" fill="#ffffff" stroke="#dde3df" stroke-width="2"/>
<text x="128" y="1526" font-size="58" font-weight="700" fill="#0f766e" text-anchor="middle">8</text>
<rect x="186" y="1466" width="80" height="80" rx="18" fill="#0f766e"/>
<g transform="translate(198 1478) scale(2.3333)" fill="none" stroke="#ffffff" stroke-width="2" stroke-linecap="round" stroke-linejoin="round"><path d="M12 8V4H8" />
  <rect width="16" height="12" x="4" y="8" rx="2" />
  <path d="M2 14h2" />
  <path d="M20 14h2" />
  <path d="M15 13v2" />
  <path d="M9 13v2" /></g>
<text x="296" y="1498" font-size="33" font-weight="400" fill="#16232b">Declarar el uso de IA</text>
<text x="296" y="1540" font-size="33" font-weight="400" fill="#16232b">y lo que se ha comprobado</text>
<text x="72" y="1620" font-size="24" font-weight="700" letter-spacing="2.5" fill="#0f766e">COMPARTIR EL MATERIAL</text>
<line x1="457" y1="1612" x2="1010" y2="1612" stroke="#dde3df" stroke-width="2"/>
<rect x="70" y="1646" width="940" height="112" rx="20" fill="#ffffff" stroke="#dde3df" stroke-width="2"/>
<text x="128" y="1722" font-size="58" font-weight="700" fill="#0f766e" text-anchor="middle">9</text>
<rect x="186" y="1662" width="80" height="80" rx="18" fill="#0f766e"/>
<g transform="translate(198 1674) scale(2.3333)" fill="none" stroke="#ffffff" stroke-width="2" stroke-linecap="round" stroke-linejoin="round"><circle cx="12" cy="12" r="10" />
  <path d="M10 9.3a2.8 2.8 0 0 0-3.5 1 3.1 3.1 0 0 0 0 3.4 2.7 2.7 0 0 0 3.5 1" />
  <path d="M17 9.3a2.8 2.8 0 0 0-3.5 1 3.1 3.1 0 0 0 0 3.4 2.7 2.7 0 0 0 3.5 1" /></g>
<text x="296" y="1714" font-size="33" font-weight="400" fill="#16232b">Publicar con una licencia libre a la vista</text>
<rect x="70" y="1774" width="940" height="112" rx="20" fill="#ffffff" stroke="#dde3df" stroke-width="2"/>
<text x="128" y="1850" font-size="58" font-weight="700" fill="#0f766e" text-anchor="middle">10</text>
<rect x="186" y="1790" width="80" height="80" rx="18" fill="#0f766e"/>
<g transform="translate(198 1802) scale(2.3333)" fill="none" stroke="#ffffff" stroke-width="2" stroke-linecap="round" stroke-linejoin="round"><path d="M12 15V3" />
  <path d="M21 15v4a2 2 0 0 1-2 2H5a2 2 0 0 1-2-2v-4" />
  <path d="m7 10 5 5 5-5" /></g>
<text x="296" y="1822" font-size="33" font-weight="400" fill="#16232b">Ofrecer el código para que otras</text>
<text x="296" y="1864" font-size="33" font-weight="400" fill="#16232b">personas lo adapten</text>
<line x1="70" y1="1916" x2="1010" y2="1916" stroke="#dde3df" stroke-width="2"/>
<text x="70" y="1968" font-size="30" font-weight="700" fill="#16232b">@jjdeharo, CC BY-SA 4.0</text>
<text x="70" y="2010" font-size="27" font-weight="400" fill="#0f766e">vibe-coding-educativo.github.io/vibe-responsable</text>
<text x="70" y="2050" font-size="22" fill="#4d5b63">Iconos: Lucide (ISC y MIT). Tipografía: Atkinson Hyperlegible (OFL).</text>
<text x="70" y="2080" font-size="22" fill="#4d5b63">Maquetación generada con IA y revisada por el autor.</text>
</svg>
